<svg width="23" height="20" viewBox="0 0 23 20" fill="none" xmlns="http://www.w3.org/2000/svg">
<path d="M12.1757 0.629662L22.3594 9.39679C23.0722 10.0105 22.5676 11.0596 21.5594 11.0596H20.4279V16.9044C20.4279 17.6794 20.0702 18.4227 19.4336 18.9708C18.797 19.5189 17.9336 19.8267 17.0333 19.8267H15.9018V13.0079C15.9019 12.2625 15.571 11.5452 14.977 11.0029C14.383 10.4605 13.5708 10.1341 12.7064 10.0904L12.5073 10.0855H10.2442C9.34394 10.0855 8.48052 10.3934 7.84392 10.9414C7.20732 11.4895 6.84968 12.2328 6.84968 13.0079V19.8267H5.71816C4.81787 19.8267 3.95445 19.5189 3.31785 18.9708C2.68125 18.4227 2.32361 17.6794 2.32361 16.9044V11.0596H1.19209C0.185038 11.0596 -0.32075 10.0105 0.392106 9.39679L10.5758 0.629662C10.788 0.447042 11.0757 0.344452 11.3757 0.344452C11.6758 0.344452 11.9635 0.447042 12.1757 0.629662ZM12.5073 12.0337C12.8074 12.0337 13.0952 12.1364 13.3074 12.3191C13.5196 12.5017 13.6388 12.7495 13.6388 13.0079V19.8267H9.11271V13.0079C9.11275 12.7693 9.2145 12.539 9.39866 12.3607C9.58283 12.1824 9.8366 12.0685 10.1118 12.0406L10.2442 12.0337H12.5073Z" fill="black"/>
</svg>
