<svg width="21" height="20" viewBox="0 0 21 20" fill="none" xmlns="http://www.w3.org/2000/svg">
<path d="M15.3691 1.33989C16.8617 2.21758 18.1011 3.47997 18.9629 5.00017C19.8246 6.52038 20.2783 8.24483 20.2783 10.0002C20.2782 11.7556 19.8246 13.48 18.9628 15.0002C18.1011 16.5204 16.8616 17.7828 15.369 18.6605C13.8764 19.5381 12.1833 20.0002 10.4599 20.0001C8.73639 20.0001 7.04329 19.538 5.55074 18.6603C4.05819 17.7826 2.81877 16.5202 1.95707 15C1.09537 13.4797 0.641741 11.7553 0.641785 9.99989L0.646694 9.67589C0.701679 7.94888 1.19509 6.26585 2.07882 4.79089C2.96255 3.31592 4.20645 2.09934 5.68923 1.25977C7.17202 0.420205 8.8431 -0.0137108 10.5396 0.000330246C12.236 0.0143713 13.8999 0.47589 15.3691 1.33989ZM13.4055 4.99989H7.51455C6.25094 4.99989 6.20676 6.86389 7.38397 6.99289L7.51455 6.99989H8.49637C8.84106 6.9999 9.17967 7.09232 9.47817 7.26785C9.77667 7.44339 10.0246 7.69586 10.1969 7.99989H7.51455C7.25415 7.99989 7.00442 8.10525 6.8203 8.29279C6.63617 8.48032 6.53273 8.73468 6.53273 8.99989C6.53273 9.26511 6.63617 9.51946 6.8203 9.707C7.00442 9.89454 7.25415 9.99989 7.51455 9.99989L10.1969 10.0009C10.0244 10.3047 9.77649 10.557 9.478 10.7324C9.17951 10.9077 8.84096 11 8.49637 10.9999H7.51455C6.64073 10.9999 6.20185 12.0769 6.8204 12.7069L9.76587 15.7069C9.94999 15.8944 10.1997 15.9997 10.46 15.9997C10.7204 15.9997 10.9701 15.8944 11.1542 15.7069L11.2357 15.6129C11.3822 15.4205 11.4548 15.1802 11.4398 14.9372C11.4248 14.6942 11.3232 14.4651 11.1542 14.2929L9.69714 12.8079L9.80809 12.7709C10.414 12.5515 10.9578 12.1844 11.3922 11.7015C11.8266 11.2186 12.1383 10.6348 12.3 10.0009L13.4055 9.99989C13.6659 9.99989 13.9156 9.89454 14.0997 9.707C14.2839 9.51946 14.3873 9.26511 14.3873 8.99989C14.3873 8.73468 14.2839 8.48032 14.0997 8.29279C13.9156 8.10525 13.6659 7.99989 13.4055 7.99989H12.3C12.2245 7.70319 12.1158 7.41631 11.976 7.14489L11.8984 6.99989H13.4055C13.6659 6.99989 13.9156 6.89454 14.0997 6.707C14.2839 6.51946 14.3873 6.26511 14.3873 5.99989L14.3804 5.88289C14.3523 5.63964 14.2375 5.41537 14.0578 5.25261C13.8781 5.08985 13.646 4.99993 13.4055 4.99989Z" fill="black"/>
</svg>
