
<svg width="32" height="18" viewBox="0 0 32 18" fill="none" xmlns="http://www.w3.org/2000/svg">
<path d="M28.939 6.00497H17.211C16.4967 3.95163 15.0735 2.23069 13.2049 1.161C11.3364 0.0913247 9.14923 -0.25458 7.04868 0.18738C3.66616 0.877094 0.918794 3.63595 0.209796 7.05453C-0.0771967 8.36975 -0.0696528 9.7336 0.231871 11.0455C0.533394 12.3573 1.1212 13.5837 1.95194 14.6342C2.78268 15.6847 3.83515 16.5325 5.03172 17.1151C6.22828 17.6976 7.53842 18 8.86549 18C10.697 18.0001 12.4834 17.4232 13.9782 16.3489C15.473 15.2747 16.6025 13.756 17.211 12.0025H17.728L19.6334 13.9367C20.2095 14.5214 21.14 14.5214 21.7161 13.9367L23.6363 12.0025L25.5417 13.9367C26.1178 14.5214 27.0631 14.5214 27.6392 13.9367L31.4648 10.0233C31.6023 9.88293 31.711 9.71631 31.7848 9.53306C31.8585 9.34981 31.8957 9.15356 31.8944 8.95562C31.893 8.75768 31.853 8.56198 31.7768 8.3798C31.7005 8.19763 31.5895 8.03258 31.45 7.89419L29.9877 6.43979C29.6923 6.15491 29.323 6.00497 28.939 6.00497ZM8.86549 13.5019C6.4283 13.5019 4.43424 11.4777 4.43424 9.00373C4.43424 6.52975 6.4283 4.50559 8.86549 4.50559C11.3027 4.50559 13.2967 6.52975 13.2967 9.00373C13.2967 11.4777 11.3027 13.5019 8.86549 13.5019Z" fill="black"/>
</svg>
