<svg width="19" height="19" viewBox="0 0 19 19" fill="none" xmlns="http://www.w3.org/2000/svg">
<path fill-rule="evenodd" clip-rule="evenodd" d="M5.39521 4.46511C5.39521 3.42892 5.82644 2.43516 6.59403 1.70246C7.36162 0.969763 8.4027 0.558136 9.48823 0.558136C10.5738 0.558136 11.6148 0.969763 12.3824 1.70246C13.15 2.43516 13.5813 3.42892 13.5813 4.46511C13.5813 5.50131 13.15 6.49506 12.3824 7.22776C11.6148 7.96046 10.5738 8.37209 9.48823 8.37209C8.4027 8.37209 7.36162 7.96046 6.59403 7.22776C5.82644 6.49506 5.39521 5.50131 5.39521 4.46511ZM5.39521 10.3256C4.03829 10.3256 2.73694 10.8401 1.77745 11.756C0.817966 12.6719 0.278931 13.9141 0.278931 15.2093C0.278931 15.9864 0.602352 16.7318 1.17804 17.2813C1.75374 17.8308 2.53455 18.1395 3.3487 18.1395H15.6278C16.4419 18.1395 17.2227 17.8308 17.7984 17.2813C18.3741 16.7318 18.6975 15.9864 18.6975 15.2093C18.6975 13.9141 18.1585 12.6719 17.199 11.756C16.2395 10.8401 14.9382 10.3256 13.5813 10.3256H5.39521Z" fill="black"/>
</svg>
