<svg width="91" height="104" viewBox="0 0 91 104" fill="none" xmlns="http://www.w3.org/2000/svg">
<rect x="0.800049" y="0.416748" width="89.7231" height="103.365" rx="4.81069" fill="#D9D9D9"/>
<path fill-rule="evenodd" clip-rule="evenodd" d="M30.7077 32.8317C30.7077 28.7437 32.2832 24.823 35.0876 21.9323C37.892 19.0416 41.6955 17.4176 45.6615 17.4176C49.6276 17.4176 53.4311 19.0416 56.2355 21.9323C59.0399 24.823 60.6154 28.7437 60.6154 32.8317C60.6154 36.9198 59.0399 40.8405 56.2355 43.7312C53.4311 46.6219 49.6276 48.2459 45.6615 48.2459C41.6955 48.2459 37.892 46.6219 35.0876 43.7312C32.2832 40.8405 30.7077 36.9198 30.7077 32.8317ZM30.7077 55.9529C25.7502 55.9529 20.9957 57.9829 17.4902 61.5963C13.9847 65.2097 12.0154 70.1105 12.0154 75.2206C12.0154 78.2867 13.197 81.2272 15.3003 83.3952C17.4036 85.5632 20.2563 86.7812 23.2308 86.7812H68.0923C71.0668 86.7812 73.9195 85.5632 76.0228 83.3952C78.1261 81.2272 79.3077 78.2867 79.3077 75.2206C79.3077 70.1105 77.3384 65.2097 73.8329 61.5963C70.3274 57.9829 65.5729 55.9529 60.6154 55.9529H30.7077Z" fill="#9A9A9A"/>
</svg>
