<svg width="24" height="16" viewBox="0 0 24 16" fill="none" xmlns="http://www.w3.org/2000/svg">
<path fill-rule="evenodd" clip-rule="evenodd" d="M17.9517 0H3.02801C2.40306 0 1.8037 0.252856 1.3618 0.702944C0.919891 1.15303 0.671631 1.76348 0.671631 2.4V13.6C0.671631 14.2365 0.919891 14.847 1.3618 15.2971C1.8037 15.7471 2.40306 16 3.02801 16H17.9517C18.5767 16 19.176 15.7471 19.6179 15.2971C20.0598 14.847 20.3081 14.2365 20.3081 13.6V12H20.7008C21.3779 12 22.0272 11.7261 22.5059 11.2385C22.9846 10.7509 23.2536 10.0896 23.2536 9.4V6.6C23.2536 6.25856 23.1875 5.92047 23.0593 5.60502C22.931 5.28958 22.7429 5.00295 22.5059 4.76152C22.2689 4.52009 21.9874 4.32858 21.6777 4.19791C21.368 4.06725 21.0361 4 20.7008 4H20.3081V2.4C20.3081 1.76348 20.0598 1.15303 19.6179 0.702944C19.176 0.252856 18.5767 0 17.9517 0ZM15.9881 6C15.8318 6 15.682 6.06321 15.5715 6.17574C15.4611 6.28826 15.399 6.44087 15.399 6.6V9.4C15.399 9.55913 15.4611 9.71174 15.5715 9.82426C15.682 9.93679 15.8318 10 15.9881 10H20.7008C20.8571 10 21.0069 9.93679 21.1174 9.82426C21.2279 9.71174 21.2899 9.55913 21.2899 9.4V6.6C21.2899 6.44087 21.2279 6.28826 21.1174 6.17574C21.0069 6.06321 20.8571 6 20.7008 6H15.9881Z" fill="black"/>
</svg>
