<svg width="22" height="17" viewBox="0 0 22 17" fill="none" xmlns="http://www.w3.org/2000/svg">
<path fill-rule="evenodd" clip-rule="evenodd" d="M3.81584 0.518768C3.02552 0.518768 2.26757 0.828461 1.70873 1.37972C1.14989 1.93097 0.835938 2.67864 0.835938 3.45823V13.0783C0.835938 13.8579 1.14989 14.6056 1.70873 15.1568C2.26757 15.7081 3.02552 16.0178 3.81584 16.0178H18.9862C19.7765 16.0178 20.5345 15.7081 21.0933 15.1568C21.6522 14.6056 21.9661 13.8579 21.9661 13.0783V3.45823C21.9661 2.67864 21.6522 1.93097 21.0933 1.37972C20.5345 0.828461 19.7765 0.518768 18.9862 0.518768H3.81584ZM16.2772 6.93215C15.918 6.93215 15.5735 7.07292 15.3195 7.32349C15.0654 7.57406 14.9227 7.91391 14.9227 8.26827C14.9227 8.62263 15.0654 8.96248 15.3195 9.21305C15.5735 9.46362 15.918 9.60439 16.2772 9.60439C16.6365 9.60439 16.981 9.46362 17.235 9.21305C17.489 8.96248 17.6317 8.62263 17.6317 8.26827C17.6317 7.91391 17.489 7.57406 17.235 7.32349C16.981 7.07292 16.6365 6.93215 16.2772 6.93215Z" fill="black"/>
</svg>
